<mxfile host="65bd71144e">
    <diagram id="RaqW495eJjoKhVFiMn66" name="Page-1">
        <mxGraphModel dx="218" dy="160" grid="0" gridSize="10" guides="1" tooltips="1" connect="1" arrows="1" fold="1" page="1" pageScale="1" pageWidth="850" pageHeight="1100" math="0" shadow="0">
            <root>
                <mxCell id="0"/>
                <mxCell id="1" parent="0"/>
                <mxCell id="2" value="FS_4BIT" style="rounded=0;whiteSpace=wrap;html=1;" parent="1" vertex="1">
                    <mxGeometry x="300" y="140" width="70" height="140" as="geometry"/>
                </mxCell>
                <mxCell id="13" value="" style="group" parent="1" vertex="1" connectable="0">
                    <mxGeometry x="180" y="192" width="120" height="30" as="geometry"/>
                </mxCell>
                <mxCell id="7" value="A" style="text;html=1;align=center;verticalAlign=middle;whiteSpace=wrap;rounded=0;" parent="13" vertex="1">
                    <mxGeometry width="60" height="30" as="geometry"/>
                </mxCell>
                <mxCell id="8" value="" style="endArrow=classic;html=1;" parent="13" edge="1">
                    <mxGeometry width="50" height="50" relative="1" as="geometry">
                        <mxPoint x="60" y="15" as="sourcePoint"/>
                        <mxPoint x="120" y="15" as="targetPoint"/>
                    </mxGeometry>
                </mxCell>
                <mxCell id="11" value="" style="endArrow=none;html=1;" parent="13" edge="1">
                    <mxGeometry width="50" height="50" relative="1" as="geometry">
                        <mxPoint x="90" y="20" as="sourcePoint"/>
                        <mxPoint x="100" y="10" as="targetPoint"/>
                    </mxGeometry>
                </mxCell>
                <mxCell id="12" value="4" style="text;html=1;align=center;verticalAlign=middle;whiteSpace=wrap;rounded=0;fontSize=7;" parent="13" vertex="1">
                    <mxGeometry x="86" y="5" width="10" height="10" as="geometry"/>
                </mxCell>
                <mxCell id="14" value="" style="group" parent="1" vertex="1" connectable="0">
                    <mxGeometry x="180" y="216" width="120" height="30" as="geometry"/>
                </mxCell>
                <mxCell id="15" value="B" style="text;html=1;align=center;verticalAlign=middle;whiteSpace=wrap;rounded=0;" parent="14" vertex="1">
                    <mxGeometry width="60" height="30" as="geometry"/>
                </mxCell>
                <mxCell id="16" value="" style="endArrow=classic;html=1;" parent="14" edge="1">
                    <mxGeometry width="50" height="50" relative="1" as="geometry">
                        <mxPoint x="60" y="15" as="sourcePoint"/>
                        <mxPoint x="120" y="15" as="targetPoint"/>
                    </mxGeometry>
                </mxCell>
                <mxCell id="17" value="" style="endArrow=none;html=1;" parent="14" edge="1">
                    <mxGeometry width="50" height="50" relative="1" as="geometry">
                        <mxPoint x="90" y="20" as="sourcePoint"/>
                        <mxPoint x="100" y="10" as="targetPoint"/>
                    </mxGeometry>
                </mxCell>
                <mxCell id="18" value="4" style="text;html=1;align=center;verticalAlign=middle;whiteSpace=wrap;rounded=0;fontSize=7;" parent="14" vertex="1">
                    <mxGeometry x="86" y="5" width="10" height="10" as="geometry"/>
                </mxCell>
                <mxCell id="19" value="" style="group" parent="1" vertex="1" connectable="0">
                    <mxGeometry x="180" y="170" width="120" height="30" as="geometry"/>
                </mxCell>
                <mxCell id="5" value="EN" style="text;html=1;align=center;verticalAlign=middle;whiteSpace=wrap;rounded=0;" parent="19" vertex="1">
                    <mxGeometry width="60" height="30" as="geometry"/>
                </mxCell>
                <mxCell id="6" value="" style="endArrow=classic;html=1;" parent="19" edge="1">
                    <mxGeometry width="50" height="50" relative="1" as="geometry">
                        <mxPoint x="60" y="15" as="sourcePoint"/>
                        <mxPoint x="120" y="15" as="targetPoint"/>
                    </mxGeometry>
                </mxCell>
                <mxCell id="20" value="" style="group" parent="1" vertex="1" connectable="0">
                    <mxGeometry x="180" y="150" width="120" height="30" as="geometry"/>
                </mxCell>
                <mxCell id="3" value="" style="endArrow=classic;html=1;" parent="20" edge="1">
                    <mxGeometry width="50" height="50" relative="1" as="geometry">
                        <mxPoint x="60" y="15" as="sourcePoint"/>
                        <mxPoint x="120" y="15" as="targetPoint"/>
                    </mxGeometry>
                </mxCell>
                <mxCell id="4" value="RST" style="text;html=1;align=center;verticalAlign=middle;whiteSpace=wrap;rounded=0;" parent="20" vertex="1">
                    <mxGeometry width="60" height="30" as="geometry"/>
                </mxCell>
                <mxCell id="21" value="" style="group" parent="1" vertex="1" connectable="0">
                    <mxGeometry x="180" y="241" width="120" height="30" as="geometry"/>
                </mxCell>
                <mxCell id="22" value="BORROW_IN" style="text;html=1;align=center;verticalAlign=middle;whiteSpace=wrap;rounded=0;" parent="21" vertex="1">
                    <mxGeometry x="-30" width="90" height="30" as="geometry"/>
                </mxCell>
                <mxCell id="23" value="" style="endArrow=classic;html=1;" parent="21" edge="1">
                    <mxGeometry width="50" height="50" relative="1" as="geometry">
                        <mxPoint x="60" y="15" as="sourcePoint"/>
                        <mxPoint x="120" y="15" as="targetPoint"/>
                    </mxGeometry>
                </mxCell>
                <mxCell id="29" value="" style="group" parent="1" vertex="1" connectable="0">
                    <mxGeometry x="370" y="180" width="119" height="30" as="geometry"/>
                </mxCell>
                <mxCell id="25" value="OUT" style="text;html=1;align=center;verticalAlign=middle;whiteSpace=wrap;rounded=0;" parent="29" vertex="1">
                    <mxGeometry x="59" width="60" height="30" as="geometry"/>
                </mxCell>
                <mxCell id="26" value="" style="endArrow=classic;html=1;" parent="29" edge="1">
                    <mxGeometry width="50" height="50" relative="1" as="geometry">
                        <mxPoint y="15" as="sourcePoint"/>
                        <mxPoint x="60" y="15" as="targetPoint"/>
                    </mxGeometry>
                </mxCell>
                <mxCell id="27" value="" style="endArrow=none;html=1;" parent="29" edge="1">
                    <mxGeometry width="50" height="50" relative="1" as="geometry">
                        <mxPoint x="30" y="20" as="sourcePoint"/>
                        <mxPoint x="40" y="10" as="targetPoint"/>
                    </mxGeometry>
                </mxCell>
                <mxCell id="28" value="4" style="text;html=1;align=center;verticalAlign=middle;whiteSpace=wrap;rounded=0;fontSize=7;" parent="29" vertex="1">
                    <mxGeometry x="26" y="5" width="10" height="10" as="geometry"/>
                </mxCell>
                <mxCell id="31" value="BORROW_OUT" style="text;html=1;align=center;verticalAlign=middle;whiteSpace=wrap;rounded=0;" parent="1" vertex="1">
                    <mxGeometry x="439" y="211" width="90" height="30" as="geometry"/>
                </mxCell>
                <mxCell id="32" value="" style="endArrow=classic;html=1;" parent="1" edge="1">
                    <mxGeometry width="50" height="50" relative="1" as="geometry">
                        <mxPoint x="370" y="225" as="sourcePoint"/>
                        <mxPoint x="430" y="225" as="targetPoint"/>
                    </mxGeometry>
                </mxCell>
                <mxCell id="34" value="" style="group" parent="1" vertex="1" connectable="0">
                    <mxGeometry x="180" y="445" width="120" height="30" as="geometry"/>
                </mxCell>
                <mxCell id="35" value="A" style="text;html=1;align=center;verticalAlign=middle;whiteSpace=wrap;rounded=0;" parent="34" vertex="1">
                    <mxGeometry width="60" height="30" as="geometry"/>
                </mxCell>
                <mxCell id="36" value="" style="endArrow=classic;html=1;" parent="34" edge="1">
                    <mxGeometry width="50" height="50" relative="1" as="geometry">
                        <mxPoint x="60" y="15" as="sourcePoint"/>
                        <mxPoint x="120" y="15" as="targetPoint"/>
                    </mxGeometry>
                </mxCell>
                <mxCell id="37" value="" style="endArrow=none;html=1;" parent="34" edge="1">
                    <mxGeometry width="50" height="50" relative="1" as="geometry">
                        <mxPoint x="90" y="20" as="sourcePoint"/>
                        <mxPoint x="100" y="10" as="targetPoint"/>
                    </mxGeometry>
                </mxCell>
                <mxCell id="38" value="4" style="text;html=1;align=center;verticalAlign=middle;whiteSpace=wrap;rounded=0;fontSize=7;" parent="34" vertex="1">
                    <mxGeometry x="86" y="5" width="10" height="10" as="geometry"/>
                </mxCell>
                <mxCell id="39" value="" style="group" parent="1" vertex="1" connectable="0">
                    <mxGeometry x="180" y="469" width="120" height="30" as="geometry"/>
                </mxCell>
                <mxCell id="40" value="B" style="text;html=1;align=center;verticalAlign=middle;whiteSpace=wrap;rounded=0;" parent="39" vertex="1">
                    <mxGeometry width="60" height="30" as="geometry"/>
                </mxCell>
                <mxCell id="41" value="" style="endArrow=classic;html=1;" parent="39" edge="1">
                    <mxGeometry width="50" height="50" relative="1" as="geometry">
                        <mxPoint x="60" y="15" as="sourcePoint"/>
                        <mxPoint x="120" y="15" as="targetPoint"/>
                    </mxGeometry>
                </mxCell>
                <mxCell id="42" value="" style="endArrow=none;html=1;" parent="39" edge="1">
                    <mxGeometry width="50" height="50" relative="1" as="geometry">
                        <mxPoint x="90" y="20" as="sourcePoint"/>
                        <mxPoint x="100" y="10" as="targetPoint"/>
                    </mxGeometry>
                </mxCell>
                <mxCell id="43" value="4" style="text;html=1;align=center;verticalAlign=middle;whiteSpace=wrap;rounded=0;fontSize=7;" parent="39" vertex="1">
                    <mxGeometry x="86" y="5" width="10" height="10" as="geometry"/>
                </mxCell>
                <mxCell id="44" value="" style="group" parent="1" vertex="1" connectable="0">
                    <mxGeometry x="180" y="423" width="120" height="30" as="geometry"/>
                </mxCell>
                <mxCell id="45" value="EN" style="text;html=1;align=center;verticalAlign=middle;whiteSpace=wrap;rounded=0;" parent="44" vertex="1">
                    <mxGeometry width="60" height="30" as="geometry"/>
                </mxCell>
                <mxCell id="46" value="" style="endArrow=classic;html=1;" parent="44" edge="1">
                    <mxGeometry width="50" height="50" relative="1" as="geometry">
                        <mxPoint x="60" y="15" as="sourcePoint"/>
                        <mxPoint x="120" y="15" as="targetPoint"/>
                    </mxGeometry>
                </mxCell>
                <mxCell id="47" value="" style="group" parent="1" vertex="1" connectable="0">
                    <mxGeometry x="180" y="403" width="120" height="30" as="geometry"/>
                </mxCell>
                <mxCell id="48" value="" style="endArrow=classic;html=1;" parent="47" edge="1">
                    <mxGeometry width="50" height="50" relative="1" as="geometry">
                        <mxPoint x="60" y="15" as="sourcePoint"/>
                        <mxPoint x="120" y="15" as="targetPoint"/>
                    </mxGeometry>
                </mxCell>
                <mxCell id="49" value="RST" style="text;html=1;align=center;verticalAlign=middle;whiteSpace=wrap;rounded=0;" parent="47" vertex="1">
                    <mxGeometry width="60" height="30" as="geometry"/>
                </mxCell>
                <mxCell id="50" value="" style="group" parent="1" vertex="1" connectable="0">
                    <mxGeometry x="174" y="607" width="120" height="30" as="geometry"/>
                </mxCell>
                <mxCell id="51" value="BORROW_IN" style="text;html=1;align=center;verticalAlign=middle;whiteSpace=wrap;rounded=0;" parent="50" vertex="1">
                    <mxGeometry x="-30" width="90" height="30" as="geometry"/>
                </mxCell>
                <mxCell id="52" value="" style="endArrow=classic;html=1;" parent="50" edge="1">
                    <mxGeometry width="50" height="50" relative="1" as="geometry">
                        <mxPoint x="60" y="15" as="sourcePoint"/>
                        <mxPoint x="120" y="15" as="targetPoint"/>
                    </mxGeometry>
                </mxCell>
                <mxCell id="53" value="" style="group" parent="1" vertex="1" connectable="0">
                    <mxGeometry x="370" y="447" width="119" height="30" as="geometry"/>
                </mxCell>
                <mxCell id="54" value="OUT" style="text;html=1;align=center;verticalAlign=middle;whiteSpace=wrap;rounded=0;" parent="53" vertex="1">
                    <mxGeometry x="59" width="60" height="30" as="geometry"/>
                </mxCell>
                <mxCell id="55" value="" style="endArrow=classic;html=1;" parent="53" edge="1">
                    <mxGeometry width="50" height="50" relative="1" as="geometry">
                        <mxPoint y="15" as="sourcePoint"/>
                        <mxPoint x="60" y="15" as="targetPoint"/>
                    </mxGeometry>
                </mxCell>
                <mxCell id="56" value="" style="endArrow=none;html=1;" parent="53" edge="1">
                    <mxGeometry width="50" height="50" relative="1" as="geometry">
                        <mxPoint x="30" y="20" as="sourcePoint"/>
                        <mxPoint x="40" y="10" as="targetPoint"/>
                    </mxGeometry>
                </mxCell>
                <mxCell id="57" value="4" style="text;html=1;align=center;verticalAlign=middle;whiteSpace=wrap;rounded=0;fontSize=7;" parent="53" vertex="1">
                    <mxGeometry x="26" y="5" width="10" height="10" as="geometry"/>
                </mxCell>
                <mxCell id="58" value="BORROW_OUT" style="text;html=1;align=center;verticalAlign=middle;whiteSpace=wrap;rounded=0;" parent="1" vertex="1">
                    <mxGeometry x="439" y="478" width="90" height="30" as="geometry"/>
                </mxCell>
                <mxCell id="59" value="" style="endArrow=classic;html=1;" parent="1" edge="1">
                    <mxGeometry width="50" height="50" relative="1" as="geometry">
                        <mxPoint x="370" y="492" as="sourcePoint"/>
                        <mxPoint x="430" y="492" as="targetPoint"/>
                    </mxGeometry>
                </mxCell>
                <mxCell id="60" value="ALU_4BIT" style="rounded=0;whiteSpace=wrap;html=1;" parent="1" vertex="1">
                    <mxGeometry x="300" y="393" width="70" height="140" as="geometry"/>
                </mxCell>
                <mxCell id="61" value="" style="group" parent="1" vertex="1" connectable="0">
                    <mxGeometry x="180" y="493" width="120" height="30" as="geometry"/>
                </mxCell>
                <mxCell id="62" value="SEL" style="text;html=1;align=center;verticalAlign=middle;whiteSpace=wrap;rounded=0;" parent="61" vertex="1">
                    <mxGeometry width="60" height="30" as="geometry"/>
                </mxCell>
                <mxCell id="63" value="" style="endArrow=classic;html=1;" parent="61" edge="1">
                    <mxGeometry width="50" height="50" relative="1" as="geometry">
                        <mxPoint x="60" y="15" as="sourcePoint"/>
                        <mxPoint x="120" y="15" as="targetPoint"/>
                    </mxGeometry>
                </mxCell>
                <mxCell id="64" value="" style="endArrow=none;html=1;" parent="61" edge="1">
                    <mxGeometry width="50" height="50" relative="1" as="geometry">
                        <mxPoint x="90" y="20" as="sourcePoint"/>
                        <mxPoint x="100" y="10" as="targetPoint"/>
                    </mxGeometry>
                </mxCell>
                <mxCell id="65" value="4" style="text;html=1;align=center;verticalAlign=middle;whiteSpace=wrap;rounded=0;fontSize=7;" parent="61" vertex="1">
                    <mxGeometry x="86" y="5" width="10" height="10" as="geometry"/>
                </mxCell>
                <mxCell id="66" value="CARRY_OUT" style="text;html=1;align=center;verticalAlign=middle;whiteSpace=wrap;rounded=0;" parent="1" vertex="1">
                    <mxGeometry x="439" y="419" width="90" height="30" as="geometry"/>
                </mxCell>
                <mxCell id="67" value="" style="endArrow=classic;html=1;" parent="1" edge="1">
                    <mxGeometry width="50" height="50" relative="1" as="geometry">
                        <mxPoint x="370" y="433" as="sourcePoint"/>
                        <mxPoint x="430" y="433" as="targetPoint"/>
                    </mxGeometry>
                </mxCell>
                <mxCell id="69" value="" style="group" parent="1" vertex="1" connectable="0">
                    <mxGeometry x="94" y="906" width="120" height="30" as="geometry"/>
                </mxCell>
                <mxCell id="70" value="A" style="text;html=1;align=center;verticalAlign=middle;whiteSpace=wrap;rounded=0;" parent="69" vertex="1">
                    <mxGeometry width="60" height="30" as="geometry"/>
                </mxCell>
                <mxCell id="71" value="" style="endArrow=classic;html=1;" parent="69" edge="1">
                    <mxGeometry width="50" height="50" relative="1" as="geometry">
                        <mxPoint x="60" y="15" as="sourcePoint"/>
                        <mxPoint x="120" y="15" as="targetPoint"/>
                    </mxGeometry>
                </mxCell>
                <mxCell id="72" value="" style="endArrow=none;html=1;" parent="69" edge="1">
                    <mxGeometry width="50" height="50" relative="1" as="geometry">
                        <mxPoint x="90" y="20" as="sourcePoint"/>
                        <mxPoint x="100" y="10" as="targetPoint"/>
                    </mxGeometry>
                </mxCell>
                <mxCell id="73" value="4" style="text;html=1;align=center;verticalAlign=middle;whiteSpace=wrap;rounded=0;fontSize=7;" parent="69" vertex="1">
                    <mxGeometry x="86" y="5" width="10" height="10" as="geometry"/>
                </mxCell>
                <mxCell id="74" value="" style="group" parent="1" vertex="1" connectable="0">
                    <mxGeometry x="94" y="930" width="120" height="30" as="geometry"/>
                </mxCell>
                <mxCell id="75" value="B" style="text;html=1;align=center;verticalAlign=middle;whiteSpace=wrap;rounded=0;" parent="74" vertex="1">
                    <mxGeometry width="60" height="30" as="geometry"/>
                </mxCell>
                <mxCell id="76" value="" style="endArrow=classic;html=1;" parent="74" edge="1">
                    <mxGeometry width="50" height="50" relative="1" as="geometry">
                        <mxPoint x="60" y="15" as="sourcePoint"/>
                        <mxPoint x="120" y="15" as="targetPoint"/>
                    </mxGeometry>
                </mxCell>
                <mxCell id="77" value="" style="endArrow=none;html=1;" parent="74" edge="1">
                    <mxGeometry width="50" height="50" relative="1" as="geometry">
                        <mxPoint x="90" y="20" as="sourcePoint"/>
                        <mxPoint x="100" y="10" as="targetPoint"/>
                    </mxGeometry>
                </mxCell>
                <mxCell id="78" value="4" style="text;html=1;align=center;verticalAlign=middle;whiteSpace=wrap;rounded=0;fontSize=7;" parent="74" vertex="1">
                    <mxGeometry x="86" y="5" width="10" height="10" as="geometry"/>
                </mxCell>
                <mxCell id="79" value="" style="group" parent="1" vertex="1" connectable="0">
                    <mxGeometry x="94" y="884" width="120" height="30" as="geometry"/>
                </mxCell>
                <mxCell id="80" value="EN" style="text;html=1;align=center;verticalAlign=middle;whiteSpace=wrap;rounded=0;" parent="79" vertex="1">
                    <mxGeometry width="60" height="30" as="geometry"/>
                </mxCell>
                <mxCell id="81" value="" style="endArrow=classic;html=1;" parent="79" edge="1">
                    <mxGeometry width="50" height="50" relative="1" as="geometry">
                        <mxPoint x="60" y="15" as="sourcePoint"/>
                        <mxPoint x="120" y="15" as="targetPoint"/>
                    </mxGeometry>
                </mxCell>
                <mxCell id="82" value="" style="group" parent="1" vertex="1" connectable="0">
                    <mxGeometry x="94" y="864" width="120" height="30" as="geometry"/>
                </mxCell>
                <mxCell id="83" value="" style="endArrow=classic;html=1;" parent="82" edge="1">
                    <mxGeometry width="50" height="50" relative="1" as="geometry">
                        <mxPoint x="60" y="15" as="sourcePoint"/>
                        <mxPoint x="120" y="15" as="targetPoint"/>
                    </mxGeometry>
                </mxCell>
                <mxCell id="84" value="RST" style="text;html=1;align=center;verticalAlign=middle;whiteSpace=wrap;rounded=0;" parent="82" vertex="1">
                    <mxGeometry width="60" height="30" as="geometry"/>
                </mxCell>
                <mxCell id="85" value="" style="group" parent="1" vertex="1" connectable="0">
                    <mxGeometry x="491" y="906" width="119" height="30" as="geometry"/>
                </mxCell>
                <mxCell id="86" value="OUT" style="text;html=1;align=center;verticalAlign=middle;whiteSpace=wrap;rounded=0;" parent="85" vertex="1">
                    <mxGeometry x="59" width="60" height="30" as="geometry"/>
                </mxCell>
                <mxCell id="87" value="" style="endArrow=classic;html=1;" parent="85" edge="1">
                    <mxGeometry width="50" height="50" relative="1" as="geometry">
                        <mxPoint y="15" as="sourcePoint"/>
                        <mxPoint x="60" y="15" as="targetPoint"/>
                    </mxGeometry>
                </mxCell>
                <mxCell id="88" value="" style="endArrow=none;html=1;" parent="85" edge="1">
                    <mxGeometry width="50" height="50" relative="1" as="geometry">
                        <mxPoint x="30" y="20" as="sourcePoint"/>
                        <mxPoint x="40" y="10" as="targetPoint"/>
                    </mxGeometry>
                </mxCell>
                <mxCell id="89" value="4" style="text;html=1;align=center;verticalAlign=middle;whiteSpace=wrap;rounded=0;fontSize=7;" parent="85" vertex="1">
                    <mxGeometry x="26" y="5" width="10" height="10" as="geometry"/>
                </mxCell>
                <mxCell id="90" value="BORROW_OUT" style="text;html=1;align=center;verticalAlign=middle;whiteSpace=wrap;rounded=0;" parent="1" vertex="1">
                    <mxGeometry x="560" y="937" width="90" height="30" as="geometry"/>
                </mxCell>
                <mxCell id="91" value="" style="endArrow=classic;html=1;" parent="1" edge="1">
                    <mxGeometry width="50" height="50" relative="1" as="geometry">
                        <mxPoint x="491" y="951" as="sourcePoint"/>
                        <mxPoint x="551" y="951" as="targetPoint"/>
                    </mxGeometry>
                </mxCell>
                <mxCell id="92" value="" style="rounded=0;whiteSpace=wrap;html=1;movable=0;resizable=0;rotatable=0;deletable=0;editable=0;locked=1;connectable=0;" parent="1" vertex="1">
                    <mxGeometry x="214" y="854" width="277" height="140" as="geometry"/>
                </mxCell>
                <mxCell id="93" value="" style="group" parent="1" vertex="1" connectable="0">
                    <mxGeometry x="94" y="954" width="120" height="30" as="geometry"/>
                </mxCell>
                <mxCell id="94" value="SEL" style="text;html=1;align=center;verticalAlign=middle;whiteSpace=wrap;rounded=0;" parent="93" vertex="1">
                    <mxGeometry width="60" height="30" as="geometry"/>
                </mxCell>
                <mxCell id="95" value="" style="endArrow=classic;html=1;" parent="93" edge="1">
                    <mxGeometry width="50" height="50" relative="1" as="geometry">
                        <mxPoint x="60" y="15" as="sourcePoint"/>
                        <mxPoint x="120" y="15" as="targetPoint"/>
                    </mxGeometry>
                </mxCell>
                <mxCell id="96" value="" style="endArrow=none;html=1;" parent="93" edge="1">
                    <mxGeometry width="50" height="50" relative="1" as="geometry">
                        <mxPoint x="90" y="20" as="sourcePoint"/>
                        <mxPoint x="100" y="10" as="targetPoint"/>
                    </mxGeometry>
                </mxCell>
                <mxCell id="97" value="4" style="text;html=1;align=center;verticalAlign=middle;whiteSpace=wrap;rounded=0;fontSize=7;" parent="93" vertex="1">
                    <mxGeometry x="86" y="5" width="10" height="10" as="geometry"/>
                </mxCell>
                <mxCell id="98" value="CARRY_OUT" style="text;html=1;align=center;verticalAlign=middle;whiteSpace=wrap;rounded=0;" parent="1" vertex="1">
                    <mxGeometry x="560" y="878" width="90" height="30" as="geometry"/>
                </mxCell>
                <mxCell id="99" value="" style="endArrow=classic;html=1;" parent="1" edge="1">
                    <mxGeometry width="50" height="50" relative="1" as="geometry">
                        <mxPoint x="491" y="892" as="sourcePoint"/>
                        <mxPoint x="551" y="892" as="targetPoint"/>
                    </mxGeometry>
                </mxCell>
                <mxCell id="110" value="" style="group" parent="1" vertex="1" connectable="0">
                    <mxGeometry x="320" y="865" width="79" height="116" as="geometry"/>
                </mxCell>
                <mxCell id="101" value="FA_4BIT" style="rounded=0;whiteSpace=wrap;html=1;" parent="110" vertex="1">
                    <mxGeometry width="79" height="16" as="geometry"/>
                </mxCell>
                <mxCell id="103" value="FS_4BIT" style="rounded=0;whiteSpace=wrap;html=1;" parent="110" vertex="1">
                    <mxGeometry y="20" width="79" height="16" as="geometry"/>
                </mxCell>
                <mxCell id="104" value="AND_4BIT" style="rounded=0;whiteSpace=wrap;html=1;" parent="110" vertex="1">
                    <mxGeometry y="40" width="79" height="16" as="geometry"/>
                </mxCell>
                <mxCell id="105" value="NAND_4BIT" style="rounded=0;whiteSpace=wrap;html=1;" parent="110" vertex="1">
                    <mxGeometry y="60" width="79" height="16" as="geometry"/>
                </mxCell>
                <mxCell id="106" value="OR_4BIT" style="rounded=0;whiteSpace=wrap;html=1;" parent="110" vertex="1">
                    <mxGeometry y="80" width="79" height="16" as="geometry"/>
                </mxCell>
                <mxCell id="107" value="XOR_4BIT" style="rounded=0;whiteSpace=wrap;html=1;" parent="110" vertex="1">
                    <mxGeometry y="100" width="79" height="16" as="geometry"/>
                </mxCell>
                <mxCell id="111" value="SIGCTL_4BIT" style="rounded=0;whiteSpace=wrap;html=1;horizontal=0;" parent="1" vertex="1">
                    <mxGeometry x="238" y="880" width="31" height="92" as="geometry"/>
                </mxCell>
                <mxCell id="112" value="MUX_8_1_4BIT" style="rounded=0;whiteSpace=wrap;html=1;horizontal=0;" parent="1" vertex="1">
                    <mxGeometry x="423" y="864" width="32" height="119" as="geometry"/>
                </mxCell>
                <mxCell id="114" value="" style="shape=flexArrow;endArrow=classic;startArrow=classic;html=1;width=2.7672955974842766;endSize=2.191823899371069;endWidth=5.930647628760836;startSize=1.710691823899371;startWidth=4.857402792611052;" parent="1" edge="1">
                    <mxGeometry width="100" height="100" relative="1" as="geometry">
                        <mxPoint x="294" y="990" as="sourcePoint"/>
                        <mxPoint x="295" y="859" as="targetPoint"/>
                    </mxGeometry>
                </mxCell>
                <mxCell id="118" value="" style="shape=flexArrow;endArrow=classic;html=1;endWidth=4.25069436058447;endSize=0.9230769230769231;width=2.417582417582418;" parent="1" edge="1">
                    <mxGeometry width="50" height="50" relative="1" as="geometry">
                        <mxPoint x="269" y="923.97" as="sourcePoint"/>
                        <mxPoint x="293" y="924" as="targetPoint"/>
                    </mxGeometry>
                </mxCell>
                <mxCell id="120" value="" style="shape=flexArrow;endArrow=classic;html=1;endWidth=4.25069436058447;endSize=0.9230769230769231;width=2.417582417582418;" parent="1" edge="1">
                    <mxGeometry width="50" height="50" relative="1" as="geometry">
                        <mxPoint x="296" y="873" as="sourcePoint"/>
                        <mxPoint x="320" y="873" as="targetPoint"/>
                    </mxGeometry>
                </mxCell>
                <mxCell id="121" value="" style="shape=flexArrow;endArrow=classic;html=1;endWidth=4.25069436058447;endSize=0.9230769230769231;width=2.417582417582418;" parent="1" edge="1">
                    <mxGeometry width="50" height="50" relative="1" as="geometry">
                        <mxPoint x="296" y="893" as="sourcePoint"/>
                        <mxPoint x="320" y="893" as="targetPoint"/>
                    </mxGeometry>
                </mxCell>
                <mxCell id="122" value="" style="shape=flexArrow;endArrow=classic;html=1;endWidth=4.25069436058447;endSize=0.9230769230769231;width=2.417582417582418;" parent="1" edge="1">
                    <mxGeometry width="50" height="50" relative="1" as="geometry">
                        <mxPoint x="296" y="913" as="sourcePoint"/>
                        <mxPoint x="320" y="913" as="targetPoint"/>
                    </mxGeometry>
                </mxCell>
                <mxCell id="123" value="" style="shape=flexArrow;endArrow=classic;html=1;endWidth=4.25069436058447;endSize=0.9230769230769231;width=2.417582417582418;" parent="1" edge="1">
                    <mxGeometry width="50" height="50" relative="1" as="geometry">
                        <mxPoint x="296" y="933" as="sourcePoint"/>
                        <mxPoint x="320" y="933" as="targetPoint"/>
                    </mxGeometry>
                </mxCell>
                <mxCell id="124" value="" style="shape=flexArrow;endArrow=classic;html=1;endWidth=4.25069436058447;endSize=0.9230769230769231;width=2.417582417582418;" parent="1" edge="1">
                    <mxGeometry width="50" height="50" relative="1" as="geometry">
                        <mxPoint x="296" y="953" as="sourcePoint"/>
                        <mxPoint x="320" y="953" as="targetPoint"/>
                    </mxGeometry>
                </mxCell>
                <mxCell id="125" value="" style="shape=flexArrow;endArrow=classic;html=1;endWidth=4.25069436058447;endSize=0.9230769230769231;width=2.417582417582418;" parent="1" edge="1">
                    <mxGeometry width="50" height="50" relative="1" as="geometry">
                        <mxPoint x="296" y="973" as="sourcePoint"/>
                        <mxPoint x="320" y="973" as="targetPoint"/>
                    </mxGeometry>
                </mxCell>
                <mxCell id="126" value="" style="shape=flexArrow;endArrow=classic;html=1;endWidth=4.25069436058447;endSize=0.9230769230769231;width=2.417582417582418;" parent="1" edge="1">
                    <mxGeometry width="50" height="50" relative="1" as="geometry">
                        <mxPoint x="214" y="923.97" as="sourcePoint"/>
                        <mxPoint x="238" y="924" as="targetPoint"/>
                    </mxGeometry>
                </mxCell>
                <mxCell id="128" value="" style="shape=flexArrow;endArrow=classic;html=1;endWidth=4.25069436058447;endSize=0.9230769230769231;width=2.417582417582418;" parent="1" edge="1">
                    <mxGeometry width="50" height="50" relative="1" as="geometry">
                        <mxPoint x="399" y="873" as="sourcePoint"/>
                        <mxPoint x="423" y="873" as="targetPoint"/>
                    </mxGeometry>
                </mxCell>
                <mxCell id="129" value="" style="shape=flexArrow;endArrow=classic;html=1;endWidth=4.25069436058447;endSize=0.9230769230769231;width=2.417582417582418;" parent="1" edge="1">
                    <mxGeometry width="50" height="50" relative="1" as="geometry">
                        <mxPoint x="399" y="893" as="sourcePoint"/>
                        <mxPoint x="423" y="893" as="targetPoint"/>
                    </mxGeometry>
                </mxCell>
                <mxCell id="130" value="" style="shape=flexArrow;endArrow=classic;html=1;endWidth=4.25069436058447;endSize=0.9230769230769231;width=2.417582417582418;" parent="1" edge="1">
                    <mxGeometry width="50" height="50" relative="1" as="geometry">
                        <mxPoint x="399" y="913" as="sourcePoint"/>
                        <mxPoint x="423" y="913" as="targetPoint"/>
                    </mxGeometry>
                </mxCell>
                <mxCell id="131" value="" style="shape=flexArrow;endArrow=classic;html=1;endWidth=4.25069436058447;endSize=0.9230769230769231;width=2.417582417582418;" parent="1" edge="1">
                    <mxGeometry width="50" height="50" relative="1" as="geometry">
                        <mxPoint x="399" y="933" as="sourcePoint"/>
                        <mxPoint x="423" y="933" as="targetPoint"/>
                    </mxGeometry>
                </mxCell>
                <mxCell id="132" value="" style="shape=flexArrow;endArrow=classic;html=1;endWidth=4.25069436058447;endSize=0.9230769230769231;width=2.417582417582418;" parent="1" edge="1">
                    <mxGeometry width="50" height="50" relative="1" as="geometry">
                        <mxPoint x="399" y="953" as="sourcePoint"/>
                        <mxPoint x="423" y="953" as="targetPoint"/>
                    </mxGeometry>
                </mxCell>
                <mxCell id="133" value="" style="shape=flexArrow;endArrow=classic;html=1;endWidth=4.25069436058447;endSize=0.9230769230769231;width=2.417582417582418;" parent="1" edge="1">
                    <mxGeometry width="50" height="50" relative="1" as="geometry">
                        <mxPoint x="399" y="973" as="sourcePoint"/>
                        <mxPoint x="423" y="973" as="targetPoint"/>
                    </mxGeometry>
                </mxCell>
                <mxCell id="134" value="" style="shape=flexArrow;endArrow=classic;html=1;endWidth=4.25069436058447;endSize=0.9230769230769231;width=2.417582417582418;" parent="1" edge="1">
                    <mxGeometry width="50" height="50" relative="1" as="geometry">
                        <mxPoint x="455" y="920.83" as="sourcePoint"/>
                        <mxPoint x="491" y="921" as="targetPoint"/>
                    </mxGeometry>
                </mxCell>
                <mxCell id="162" value="MUX_4_1_4BIT" style="rounded=0;whiteSpace=wrap;html=1;horizontal=0;" parent="1" vertex="1">
                    <mxGeometry x="250" y="1121" width="70" height="151" as="geometry"/>
                </mxCell>
                <mxCell id="163" value="" style="group" parent="1" vertex="1" connectable="0">
                    <mxGeometry x="130" y="1142" width="120" height="30" as="geometry"/>
                </mxCell>
                <mxCell id="164" value="&lt;span style=&quot;color: rgb(0, 0, 0);&quot;&gt;IN_0&lt;/span&gt;" style="text;html=1;align=center;verticalAlign=middle;whiteSpace=wrap;rounded=0;" parent="163" vertex="1">
                    <mxGeometry width="60" height="30" as="geometry"/>
                </mxCell>
                <mxCell id="165" value="" style="endArrow=classic;html=1;" parent="163" edge="1">
                    <mxGeometry width="50" height="50" relative="1" as="geometry">
                        <mxPoint x="60" y="15" as="sourcePoint"/>
                        <mxPoint x="120" y="15" as="targetPoint"/>
                    </mxGeometry>
                </mxCell>
                <mxCell id="166" value="" style="endArrow=none;html=1;" parent="163" edge="1">
                    <mxGeometry width="50" height="50" relative="1" as="geometry">
                        <mxPoint x="90" y="20" as="sourcePoint"/>
                        <mxPoint x="100" y="10" as="targetPoint"/>
                    </mxGeometry>
                </mxCell>
                <mxCell id="167" value="4" style="text;html=1;align=center;verticalAlign=middle;whiteSpace=wrap;rounded=0;fontSize=7;" parent="163" vertex="1">
                    <mxGeometry x="86" y="5" width="10" height="10" as="geometry"/>
                </mxCell>
                <mxCell id="168" value="" style="group" parent="1" vertex="1" connectable="0">
                    <mxGeometry x="130" y="1166" width="120" height="30" as="geometry"/>
                </mxCell>
                <mxCell id="169" value="&lt;span style=&quot;color: rgb(0, 0, 0);&quot;&gt;IN_1&lt;/span&gt;" style="text;html=1;align=center;verticalAlign=middle;whiteSpace=wrap;rounded=0;" parent="168" vertex="1">
                    <mxGeometry width="60" height="30" as="geometry"/>
                </mxCell>
                <mxCell id="170" value="" style="endArrow=classic;html=1;" parent="168" edge="1">
                    <mxGeometry width="50" height="50" relative="1" as="geometry">
                        <mxPoint x="60" y="15" as="sourcePoint"/>
                        <mxPoint x="120" y="15" as="targetPoint"/>
                    </mxGeometry>
                </mxCell>
                <mxCell id="171" value="" style="endArrow=none;html=1;" parent="168" edge="1">
                    <mxGeometry width="50" height="50" relative="1" as="geometry">
                        <mxPoint x="90" y="20" as="sourcePoint"/>
                        <mxPoint x="100" y="10" as="targetPoint"/>
                    </mxGeometry>
                </mxCell>
                <mxCell id="172" value="4" style="text;html=1;align=center;verticalAlign=middle;whiteSpace=wrap;rounded=0;fontSize=7;" parent="168" vertex="1">
                    <mxGeometry x="86" y="5" width="10" height="10" as="geometry"/>
                </mxCell>
                <mxCell id="173" value="" style="group" parent="1" vertex="1" connectable="0">
                    <mxGeometry x="130" y="1120" width="120" height="30" as="geometry"/>
                </mxCell>
                <mxCell id="174" value="EN" style="text;html=1;align=center;verticalAlign=middle;whiteSpace=wrap;rounded=0;" parent="173" vertex="1">
                    <mxGeometry width="60" height="30" as="geometry"/>
                </mxCell>
                <mxCell id="175" value="" style="endArrow=classic;html=1;" parent="173" edge="1">
                    <mxGeometry width="50" height="50" relative="1" as="geometry">
                        <mxPoint x="60" y="15" as="sourcePoint"/>
                        <mxPoint x="120" y="15" as="targetPoint"/>
                    </mxGeometry>
                </mxCell>
                <mxCell id="182" value="" style="group" parent="1" vertex="1" connectable="0">
                    <mxGeometry x="320" y="1180" width="119" height="30" as="geometry"/>
                </mxCell>
                <mxCell id="183" value="OUT" style="text;html=1;align=center;verticalAlign=middle;whiteSpace=wrap;rounded=0;" parent="182" vertex="1">
                    <mxGeometry x="59" width="60" height="30" as="geometry"/>
                </mxCell>
                <mxCell id="184" value="" style="endArrow=classic;html=1;" parent="182" edge="1">
                    <mxGeometry width="50" height="50" relative="1" as="geometry">
                        <mxPoint y="15" as="sourcePoint"/>
                        <mxPoint x="60" y="15" as="targetPoint"/>
                    </mxGeometry>
                </mxCell>
                <mxCell id="185" value="" style="endArrow=none;html=1;" parent="182" edge="1">
                    <mxGeometry width="50" height="50" relative="1" as="geometry">
                        <mxPoint x="30" y="20" as="sourcePoint"/>
                        <mxPoint x="40" y="10" as="targetPoint"/>
                    </mxGeometry>
                </mxCell>
                <mxCell id="186" value="4" style="text;html=1;align=center;verticalAlign=middle;whiteSpace=wrap;rounded=0;fontSize=7;" parent="182" vertex="1">
                    <mxGeometry x="26" y="5" width="10" height="10" as="geometry"/>
                </mxCell>
                <mxCell id="189" value="" style="group" parent="1" vertex="1" connectable="0">
                    <mxGeometry x="130" y="1214" width="120" height="30" as="geometry"/>
                </mxCell>
                <mxCell id="190" value="&lt;span style=&quot;color: rgb(0, 0, 0);&quot;&gt;IN_3&lt;/span&gt;" style="text;html=1;align=center;verticalAlign=middle;whiteSpace=wrap;rounded=0;" parent="189" vertex="1">
                    <mxGeometry width="60" height="30" as="geometry"/>
                </mxCell>
                <mxCell id="191" value="" style="endArrow=classic;html=1;" parent="189" edge="1">
                    <mxGeometry width="50" height="50" relative="1" as="geometry">
                        <mxPoint x="60" y="15" as="sourcePoint"/>
                        <mxPoint x="120" y="15" as="targetPoint"/>
                    </mxGeometry>
                </mxCell>
                <mxCell id="192" value="" style="endArrow=none;html=1;" parent="189" edge="1">
                    <mxGeometry width="50" height="50" relative="1" as="geometry">
                        <mxPoint x="90" y="20" as="sourcePoint"/>
                        <mxPoint x="100" y="10" as="targetPoint"/>
                    </mxGeometry>
                </mxCell>
                <mxCell id="193" value="4" style="text;html=1;align=center;verticalAlign=middle;whiteSpace=wrap;rounded=0;fontSize=7;" parent="189" vertex="1">
                    <mxGeometry x="86" y="5" width="10" height="10" as="geometry"/>
                </mxCell>
                <mxCell id="194" value="" style="group" parent="1" vertex="1" connectable="0">
                    <mxGeometry x="130" y="1190" width="120" height="30" as="geometry"/>
                </mxCell>
                <mxCell id="195" value="&lt;span style=&quot;color: rgb(0, 0, 0);&quot;&gt;IN_2&lt;/span&gt;" style="text;html=1;align=center;verticalAlign=middle;whiteSpace=wrap;rounded=0;" parent="194" vertex="1">
                    <mxGeometry width="60" height="30" as="geometry"/>
                </mxCell>
                <mxCell id="196" value="" style="endArrow=classic;html=1;" parent="194" edge="1">
                    <mxGeometry width="50" height="50" relative="1" as="geometry">
                        <mxPoint x="60" y="15" as="sourcePoint"/>
                        <mxPoint x="120" y="15" as="targetPoint"/>
                    </mxGeometry>
                </mxCell>
                <mxCell id="197" value="" style="endArrow=none;html=1;" parent="194" edge="1">
                    <mxGeometry width="50" height="50" relative="1" as="geometry">
                        <mxPoint x="90" y="20" as="sourcePoint"/>
                        <mxPoint x="100" y="10" as="targetPoint"/>
                    </mxGeometry>
                </mxCell>
                <mxCell id="198" value="4" style="text;html=1;align=center;verticalAlign=middle;whiteSpace=wrap;rounded=0;fontSize=7;" parent="194" vertex="1">
                    <mxGeometry x="86" y="5" width="10" height="10" as="geometry"/>
                </mxCell>
                <mxCell id="199" value="" style="group" parent="1" vertex="1" connectable="0">
                    <mxGeometry x="130" y="1240" width="120" height="30" as="geometry"/>
                </mxCell>
                <mxCell id="200" value="&lt;span style=&quot;color: rgb(0, 0, 0);&quot;&gt;SEL&lt;/span&gt;" style="text;html=1;align=center;verticalAlign=middle;whiteSpace=wrap;rounded=0;" parent="199" vertex="1">
                    <mxGeometry width="60" height="30" as="geometry"/>
                </mxCell>
                <mxCell id="201" value="" style="endArrow=classic;html=1;" parent="199" edge="1">
                    <mxGeometry width="50" height="50" relative="1" as="geometry">
                        <mxPoint x="60" y="15" as="sourcePoint"/>
                        <mxPoint x="120" y="15" as="targetPoint"/>
                    </mxGeometry>
                </mxCell>
                <mxCell id="202" value="" style="endArrow=none;html=1;" parent="199" edge="1">
                    <mxGeometry width="50" height="50" relative="1" as="geometry">
                        <mxPoint x="90" y="20" as="sourcePoint"/>
                        <mxPoint x="100" y="10" as="targetPoint"/>
                    </mxGeometry>
                </mxCell>
                <mxCell id="203" value="2" style="text;html=1;align=center;verticalAlign=middle;whiteSpace=wrap;rounded=0;fontSize=7;" parent="199" vertex="1">
                    <mxGeometry x="86" y="5" width="10" height="10" as="geometry"/>
                </mxCell>
                <mxCell id="210" style="edgeStyle=none;html=1;" parent="1" source="205" target="207" edge="1">
                    <mxGeometry relative="1" as="geometry"/>
                </mxCell>
                <mxCell id="205" value="EXECUTE" style="ellipse;whiteSpace=wrap;html=1;" parent="1" vertex="1">
                    <mxGeometry x="487" y="2282" width="85" height="60" as="geometry"/>
                </mxCell>
                <mxCell id="209" style="edgeStyle=none;html=1;entryX=0;entryY=0.5;entryDx=0;entryDy=0;" parent="1" source="206" target="205" edge="1">
                    <mxGeometry relative="1" as="geometry"/>
                </mxCell>
                <mxCell id="206" value="WAIT" style="ellipse;whiteSpace=wrap;html=1;" parent="1" vertex="1">
                    <mxGeometry x="240" y="2282" width="85" height="60" as="geometry"/>
                </mxCell>
                <mxCell id="211" style="edgeStyle=none;html=1;" parent="1" source="207" target="208" edge="1">
                    <mxGeometry relative="1" as="geometry"/>
                </mxCell>
                <mxCell id="207" value="OUTPUT" style="ellipse;whiteSpace=wrap;html=1;" parent="1" vertex="1">
                    <mxGeometry x="487" y="2471" width="85" height="60" as="geometry"/>
                </mxCell>
                <mxCell id="208" value="FINISH" style="ellipse;whiteSpace=wrap;html=1;" parent="1" vertex="1">
                    <mxGeometry x="240" y="2471" width="85" height="60" as="geometry"/>
                </mxCell>
                <mxCell id="214" value="EN=1" style="text;html=1;align=center;verticalAlign=middle;whiteSpace=wrap;rounded=0;" parent="1" vertex="1">
                    <mxGeometry x="362" y="2282" width="77" height="39" as="geometry"/>
                </mxCell>
                <mxCell id="215" value="OUT_L, OUT_H,&lt;div&gt;DONE=1&lt;/div&gt;" style="text;html=1;align=center;verticalAlign=middle;whiteSpace=wrap;rounded=0;" parent="1" vertex="1">
                    <mxGeometry x="370" y="2506" width="94" height="39" as="geometry"/>
                </mxCell>
                <mxCell id="218" style="edgeStyle=none;html=1;entryX=0.499;entryY=0.95;entryDx=0;entryDy=0;entryPerimeter=0;" parent="1" source="208" target="206" edge="1">
                    <mxGeometry relative="1" as="geometry"/>
                </mxCell>
                <mxCell id="220" value="" style="endArrow=classic;html=1;exitX=0.461;exitY=-0.017;exitDx=0;exitDy=0;exitPerimeter=0;entryX=1;entryY=0;entryDx=0;entryDy=0;" parent="1" source="206" target="206" edge="1">
                    <mxGeometry width="50" height="50" relative="1" as="geometry">
                        <mxPoint x="182" y="2284" as="sourcePoint"/>
                        <mxPoint x="447" y="2245" as="targetPoint"/>
                        <Array as="points">
                            <mxPoint x="249" y="2262"/>
                            <mxPoint x="355" y="2263"/>
                        </Array>
                    </mxGeometry>
                </mxCell>
                <mxCell id="221" value="EN=0" style="text;html=1;align=center;verticalAlign=middle;whiteSpace=wrap;rounded=0;" parent="1" vertex="1">
                    <mxGeometry x="260" y="2233" width="77" height="39" as="geometry"/>
                </mxCell>
                <mxCell id="222" value="" style="endArrow=classic;html=1;entryX=0;entryY=0;entryDx=0;entryDy=0;exitX=0;exitY=1;exitDx=0;exitDy=0;" parent="1" source="208" target="208" edge="1">
                    <mxGeometry width="50" height="50" relative="1" as="geometry">
                        <mxPoint x="216" y="2545" as="sourcePoint"/>
                        <mxPoint x="112.245" y="2481.5" as="targetPoint"/>
                        <Array as="points">
                            <mxPoint x="126" y="2541"/>
                            <mxPoint x="169" y="2442"/>
                        </Array>
                    </mxGeometry>
                </mxCell>
                <mxCell id="223" value="EN=1&amp;nbsp; DONE=1" style="text;html=1;align=center;verticalAlign=middle;whiteSpace=wrap;rounded=0;" parent="1" vertex="1">
                    <mxGeometry x="98.5" y="2478" width="111" height="39" as="geometry"/>
                </mxCell>
                <mxCell id="224" value="EN=0 / DONE=0" style="text;html=1;align=center;verticalAlign=middle;whiteSpace=wrap;rounded=0;" parent="1" vertex="1">
                    <mxGeometry x="274" y="2387" width="77" height="39" as="geometry"/>
                </mxCell>
                <mxCell id="227" value="" style="endArrow=classic;html=1;entryX=0;entryY=0.5;entryDx=0;entryDy=0;" parent="1" source="228" target="206" edge="1">
                    <mxGeometry width="50" height="50" relative="1" as="geometry">
                        <mxPoint x="153" y="2312" as="sourcePoint"/>
                        <mxPoint x="182" y="2310" as="targetPoint"/>
                    </mxGeometry>
                </mxCell>
                <mxCell id="228" value="Initial" style="text;html=1;align=center;verticalAlign=middle;whiteSpace=wrap;rounded=0;" parent="1" vertex="1">
                    <mxGeometry x="89" y="2292.5" width="77" height="39" as="geometry"/>
                </mxCell>
                <mxCell id="229" value="NN_DIGITMULT" style="rounded=0;whiteSpace=wrap;html=1;horizontal=0;" vertex="1" parent="1">
                    <mxGeometry x="250" y="1463" width="70" height="130" as="geometry"/>
                </mxCell>
                <mxCell id="230" value="" style="group" vertex="1" connectable="0" parent="1">
                    <mxGeometry x="130" y="1537" width="120" height="30" as="geometry"/>
                </mxCell>
                <mxCell id="231" value="&lt;span style=&quot;color: rgb(0, 0, 0);&quot;&gt;A&lt;/span&gt;" style="text;html=1;align=center;verticalAlign=middle;whiteSpace=wrap;rounded=0;" vertex="1" parent="230">
                    <mxGeometry width="60" height="30" as="geometry"/>
                </mxCell>
                <mxCell id="232" value="" style="endArrow=classic;html=1;" edge="1" parent="230">
                    <mxGeometry width="50" height="50" relative="1" as="geometry">
                        <mxPoint x="60" y="15" as="sourcePoint"/>
                        <mxPoint x="120" y="15" as="targetPoint"/>
                    </mxGeometry>
                </mxCell>
                <mxCell id="233" value="" style="endArrow=none;html=1;" edge="1" parent="230">
                    <mxGeometry width="50" height="50" relative="1" as="geometry">
                        <mxPoint x="90" y="20" as="sourcePoint"/>
                        <mxPoint x="100" y="10" as="targetPoint"/>
                    </mxGeometry>
                </mxCell>
                <mxCell id="234" value="32" style="text;html=1;align=center;verticalAlign=middle;whiteSpace=wrap;rounded=0;fontSize=7;" vertex="1" parent="230">
                    <mxGeometry x="86" y="5" width="10" height="10" as="geometry"/>
                </mxCell>
                <mxCell id="235" value="" style="group" vertex="1" connectable="0" parent="1">
                    <mxGeometry x="130" y="1561" width="120" height="30" as="geometry"/>
                </mxCell>
                <mxCell id="236" value="&lt;span style=&quot;color: rgb(0, 0, 0);&quot;&gt;B&lt;/span&gt;" style="text;html=1;align=center;verticalAlign=middle;whiteSpace=wrap;rounded=0;" vertex="1" parent="235">
                    <mxGeometry width="60" height="30" as="geometry"/>
                </mxCell>
                <mxCell id="237" value="" style="endArrow=classic;html=1;" edge="1" parent="235">
                    <mxGeometry width="50" height="50" relative="1" as="geometry">
                        <mxPoint x="60" y="15" as="sourcePoint"/>
                        <mxPoint x="120" y="15" as="targetPoint"/>
                    </mxGeometry>
                </mxCell>
                <mxCell id="238" value="" style="endArrow=none;html=1;" edge="1" parent="235">
                    <mxGeometry width="50" height="50" relative="1" as="geometry">
                        <mxPoint x="90" y="20" as="sourcePoint"/>
                        <mxPoint x="100" y="10" as="targetPoint"/>
                    </mxGeometry>
                </mxCell>
                <mxCell id="239" value="32" style="text;html=1;align=center;verticalAlign=middle;whiteSpace=wrap;rounded=0;fontSize=7;" vertex="1" parent="235">
                    <mxGeometry x="86" y="5" width="10" height="10" as="geometry"/>
                </mxCell>
                <mxCell id="240" value="" style="group" vertex="1" connectable="0" parent="1">
                    <mxGeometry x="130" y="1513" width="120" height="30" as="geometry"/>
                </mxCell>
                <mxCell id="241" value="EN" style="text;html=1;align=center;verticalAlign=middle;whiteSpace=wrap;rounded=0;" vertex="1" parent="240">
                    <mxGeometry width="60" height="30" as="geometry"/>
                </mxCell>
                <mxCell id="242" value="" style="endArrow=classic;html=1;" edge="1" parent="240">
                    <mxGeometry width="50" height="50" relative="1" as="geometry">
                        <mxPoint x="60" y="15" as="sourcePoint"/>
                        <mxPoint x="120" y="15" as="targetPoint"/>
                    </mxGeometry>
                </mxCell>
                <mxCell id="243" value="" style="group" vertex="1" connectable="0" parent="1">
                    <mxGeometry x="320" y="1532" width="119" height="30" as="geometry"/>
                </mxCell>
                <mxCell id="244" value="OUT" style="text;html=1;align=center;verticalAlign=middle;whiteSpace=wrap;rounded=0;" vertex="1" parent="243">
                    <mxGeometry x="59" width="60" height="30" as="geometry"/>
                </mxCell>
                <mxCell id="245" value="" style="endArrow=classic;html=1;" edge="1" parent="243">
                    <mxGeometry width="50" height="50" relative="1" as="geometry">
                        <mxPoint y="15" as="sourcePoint"/>
                        <mxPoint x="60" y="15" as="targetPoint"/>
                    </mxGeometry>
                </mxCell>
                <mxCell id="246" value="" style="endArrow=none;html=1;" edge="1" parent="243">
                    <mxGeometry width="50" height="50" relative="1" as="geometry">
                        <mxPoint x="30" y="20" as="sourcePoint"/>
                        <mxPoint x="40" y="10" as="targetPoint"/>
                    </mxGeometry>
                </mxCell>
                <mxCell id="247" value="32x2" style="text;html=1;align=center;verticalAlign=middle;whiteSpace=wrap;rounded=0;fontSize=7;" vertex="1" parent="243">
                    <mxGeometry x="23" y="5" width="10" height="10" as="geometry"/>
                </mxCell>
                <mxCell id="263" value="" style="group" vertex="1" connectable="0" parent="1">
                    <mxGeometry x="130" y="1487" width="120" height="30" as="geometry"/>
                </mxCell>
                <mxCell id="264" value="RST" style="text;html=1;align=center;verticalAlign=middle;whiteSpace=wrap;rounded=0;" vertex="1" parent="263">
                    <mxGeometry width="60" height="30" as="geometry"/>
                </mxCell>
                <mxCell id="265" value="" style="endArrow=classic;html=1;" edge="1" parent="263">
                    <mxGeometry width="50" height="50" relative="1" as="geometry">
                        <mxPoint x="60" y="15" as="sourcePoint"/>
                        <mxPoint x="120" y="15" as="targetPoint"/>
                    </mxGeometry>
                </mxCell>
                <mxCell id="266" value="" style="group" vertex="1" connectable="0" parent="1">
                    <mxGeometry x="130" y="1462" width="120" height="30" as="geometry"/>
                </mxCell>
                <mxCell id="267" value="CLK" style="text;html=1;align=center;verticalAlign=middle;whiteSpace=wrap;rounded=0;" vertex="1" parent="266">
                    <mxGeometry width="60" height="30" as="geometry"/>
                </mxCell>
                <mxCell id="268" value="" style="endArrow=classic;html=1;" edge="1" parent="266">
                    <mxGeometry width="50" height="50" relative="1" as="geometry">
                        <mxPoint x="60" y="15" as="sourcePoint"/>
                        <mxPoint x="120" y="15" as="targetPoint"/>
                    </mxGeometry>
                </mxCell>
                <mxCell id="283" value="" style="endArrow=classic;html=1;" edge="1" parent="1">
                    <mxGeometry width="50" height="50" relative="1" as="geometry">
                        <mxPoint x="320" y="1516" as="sourcePoint"/>
                        <mxPoint x="380" y="1516" as="targetPoint"/>
                    </mxGeometry>
                </mxCell>
                <mxCell id="284" value="DONE" style="text;html=1;align=center;verticalAlign=middle;whiteSpace=wrap;rounded=0;" vertex="1" parent="1">
                    <mxGeometry x="367" y="1502" width="90" height="30" as="geometry"/>
                </mxCell>
            </root>
        </mxGraphModel>
    </diagram>
</mxfile>